<svg width="32" height="33" viewBox="0 0 32 33" fill="none" xmlns="http://www.w3.org/2000/svg">
<path d="M10.4065 10.9174C10.7315 10.5924 11.2602 10.5924 11.5852 10.9174L15.9965 15.3274L20.4065 10.9174C20.4826 10.8348 20.5746 10.7684 20.677 10.7222C20.7794 10.676 20.8901 10.651 21.0024 10.6486C21.1147 10.6463 21.2264 10.6667 21.3306 10.7085C21.4349 10.7504 21.5296 10.8129 21.6091 10.8923C21.6885 10.9717 21.7512 11.0664 21.7931 11.1706C21.8351 11.2748 21.8556 11.3864 21.8534 11.4987C21.8512 11.611 21.8263 11.7217 21.7802 11.8242C21.7341 11.9267 21.6678 12.0187 21.5852 12.0949L17.174 16.5062L21.5865 20.9162C21.7428 21.0727 21.8305 21.2848 21.8304 21.506C21.8303 21.7272 21.7423 21.9392 21.5859 22.0956C21.4294 22.2519 21.2172 22.3396 20.996 22.3395C20.7749 22.3394 20.5628 22.2514 20.4065 22.0949L15.9965 17.6849L11.584 22.0937C11.5073 22.1742 11.4153 22.2386 11.3133 22.283C11.2114 22.3274 11.1016 22.351 10.9904 22.3524C10.8792 22.3537 10.7689 22.3328 10.6659 22.2909C10.5629 22.249 10.4693 22.1869 10.3907 22.1082C10.3121 22.0296 10.2499 21.936 10.208 21.833C10.1661 21.73 10.1452 21.6197 10.1465 21.5085C10.1479 21.3973 10.1715 21.2875 10.2159 21.1856C10.2603 21.0836 10.3247 20.9916 10.4052 20.9149L14.8177 16.5062L10.4065 12.0937C10.2506 11.9374 10.1631 11.7257 10.1631 11.5049C10.1631 11.2842 10.2506 11.0725 10.4065 10.9162V10.9174Z" fill="#131314"/>
</svg>
